<?xml version="1.0" standalone="no"?>
<!DOCTYPE svg PUBLIC "-//W3C//DTD SVG 20010904//EN"
 "http://www.w3.org/TR/2001/REC-SVG-20010904/DTD/svg10.dtd">
<svg version="1.0" xmlns="http://www.w3.org/2000/svg"
 width="500.000000pt" height="500.000000pt" viewBox="0 0 500.000000 500.000000"
 preserveAspectRatio="xMidYMid meet">

<g transform="translate(0.000000,500.000000) scale(0.100000,-0.100000)"
fill="#000000" stroke="none">
<path d="M2485 4853 c-12 -91 -50 -342 -70 -463 -3 -19 -10 -64 -15 -100 -19
-139 -27 -181 -37 -191 -6 -6 -43 -15 -82 -19 -205 -26 -473 -127 -645 -243
-177 -119 -280 -220 -444 -432 -4 -5 -21 -32 -38 -60 -114 -188 -197 -422
-229 -648 -4 -26 -10 -49 -14 -51 -3 -2 -91 -18 -196 -35 -104 -17 -212 -35
-240 -41 -27 -5 -102 -16 -165 -25 -167 -23 -180 -25 -180 -34 0 -5 19 -11 42
-14 55 -6 316 -43 433 -61 50 -8 137 -22 195 -31 58 -9 108 -20 113 -24 4 -4
14 -50 22 -102 67 -440 312 -826 687 -1080 118 -81 309 -171 423 -200 17 -4
55 -14 85 -22 30 -8 87 -20 125 -27 39 -6 80 -14 92 -16 25 -5 26 -8 43 -129
6 -44 15 -105 20 -135 24 -143 49 -303 60 -385 18 -144 20 -154 30 -160 5 -3
11 21 15 52 3 32 10 78 15 103 5 25 14 81 20 125 6 44 18 121 26 170 9 50 22
140 30 200 19 148 21 154 47 159 12 3 74 15 137 27 491 92 912 414 1135 868
29 58 60 129 70 156 21 64 61 227 70 285 4 25 11 62 16 82 9 35 12 37 57 43
26 4 70 10 97 15 28 5 84 13 125 19 41 6 143 22 225 35 83 13 180 28 218 31
116 12 98 26 -58 45 -188 22 -647 98 -658 109 -4 4 -14 48 -22 97 -18 107 -27
148 -53 236 -23 77 -88 231 -112 268 -9 14 -34 54 -55 90 -67 113 -139 202
-251 310 -164 159 -343 271 -554 347 -102 37 -294 83 -344 83 -54 0 -72 21
-80 92 -8 78 -20 164 -40 288 -9 52 -21 127 -27 165 -5 39 -14 95 -19 125 -5
30 -12 76 -15 103 -4 26 -10 47 -15 47 -5 0 -12 -21 -15 -47z m-31 -859 c3 -9
6 -80 6 -160 l0 -144 25 -6 c53 -13 55 -7 55 153 0 81 4 154 9 162 7 10 26 12
90 6 44 -4 81 -12 81 -17 0 -6 11 -8 25 -5 35 6 153 -20 185 -40 14 -10 36
-16 50 -15 14 2 49 -9 77 -23 29 -14 60 -25 68 -25 9 0 20 -11 26 -24 9 -20 7
-31 -12 -65 -12 -22 -20 -44 -16 -47 4 -4 16 14 28 40 11 26 27 50 35 53 15 6
141 -66 169 -97 16 -18 16 -21 -4 -53 -25 -40 -27 -54 -6 -37 8 7 15 18 15 26
0 21 32 34 55 22 36 -20 105 -80 105 -93 0 -7 -29 -41 -65 -76 -36 -35 -65
-69 -65 -75 0 -6 11 -21 25 -34 l26 -24 67 67 c37 37 75 67 84 67 19 0 108
-107 108 -130 0 -8 8 -20 19 -27 19 -12 69 -81 96 -133 20 -38 12 -55 -40 -79
-44 -21 -66 -41 -45 -41 7 0 24 8 38 19 49 34 68 35 90 4 11 -15 28 -54 38
-86 15 -47 16 -62 6 -78 -10 -15 -10 -19 2 -19 7 0 19 -7 26 -14 14 -18 39
-119 40 -162 0 -35 -16 -44 -82 -44 -21 0 -38 -5 -38 -11 0 -7 18 -9 58 -4 72
8 77 3 86 -92 l7 -73 -28 0 c-45 -1 -288 -12 -290 -13 0 -1 -3 -18 -5 -37 l-3
-35 158 -3 c118 -2 159 -6 163 -15 5 -13 -3 -79 -26 -216 -15 -94 -37 -173
-51 -181 -6 -4 -12 -25 -13 -46 -3 -39 -59 -164 -75 -164 -4 0 -25 11 -45 25
-37 25 -66 32 -66 16 0 -5 17 -17 38 -26 20 -10 45 -24 54 -33 16 -14 16 -17
-9 -61 -66 -115 -91 -131 -133 -86 -13 14 -31 25 -39 25 -10 0 1 -15 27 -36
23 -20 42 -41 42 -48 0 -19 -93 -126 -110 -126 -9 0 -47 31 -85 70 -38 39 -74
70 -79 70 -16 0 -46 -32 -46 -49 0 -8 32 -48 71 -87 47 -48 70 -78 66 -87 -9
-24 -106 -97 -128 -97 -11 0 -23 -10 -28 -22 -11 -29 -152 -111 -175 -102 -10
4 -16 1 -16 -9 0 -18 -121 -77 -167 -81 -18 -2 -38 -8 -45 -13 -21 -17 -109
-42 -168 -48 -30 -4 -64 -11 -75 -16 -11 -6 -54 -9 -95 -7 l-75 3 -5 155 -5
155 -35 0 -35 0 -5 -155 -5 -155 -63 -3 c-42 -2 -71 2 -85 11 -13 8 -37 12
-57 10 -34 -4 -178 29 -189 44 -3 5 -19 9 -36 9 -16 1 -60 15 -98 33 -37 17
-72 31 -77 31 -16 0 -11 33 11 69 11 18 18 38 16 45 -3 6 -13 -8 -23 -32 -12
-25 -27 -45 -40 -48 -29 -7 -174 81 -174 106 0 13 -5 17 -19 13 -21 -5 -141
89 -141 111 0 7 34 46 75 85 41 39 75 74 75 78 -1 15 -38 53 -52 53 -8 0 -45
-31 -82 -70 -37 -38 -76 -70 -85 -70 -21 0 -101 91 -101 115 0 8 20 30 45 47
25 18 45 36 45 40 0 5 -21 -7 -47 -27 -26 -20 -53 -34 -61 -33 -19 4 -112 153
-112 179 0 13 15 26 45 40 45 21 66 39 46 39 -6 0 -31 -11 -56 -25 -25 -14
-50 -23 -55 -20 -15 9 -60 116 -67 159 -3 23 -12 50 -18 61 -28 45 -83 361
-68 388 2 4 72 7 154 7 l149 0 10 26 c13 32 13 30 -4 47 -12 11 -42 14 -148
11 -73 -2 -141 -1 -150 2 -16 5 -17 15 -11 82 3 42 10 83 16 89 6 9 26 11 66
7 39 -5 53 -3 46 4 -5 6 -30 12 -55 14 -55 4 -59 18 -35 119 21 85 31 94 78
74 20 -8 46 -15 58 -15 39 0 2 27 -46 34 -25 4 -47 12 -51 17 -6 10 22 91 55
158 9 18 24 36 34 39 11 3 16 11 12 22 -9 28 81 180 107 180 6 0 26 -12 45
-26 19 -14 37 -23 40 -20 3 3 -10 15 -30 26 -19 12 -38 27 -41 35 -7 19 81
135 102 135 9 0 47 -30 84 -67 58 -58 69 -65 83 -53 42 35 39 48 -24 114 -34
34 -61 70 -61 79 0 16 100 107 118 107 6 0 25 -22 43 -50 18 -27 36 -50 41
-50 14 0 9 27 -7 40 -9 7 -25 26 -36 42 -25 34 -20 43 48 88 77 52 103 63 119
49 8 -6 16 -10 17 -8 1 2 8 15 15 29 15 29 117 73 172 74 19 1 42 8 50 17 15
16 129 49 170 49 11 0 20 -5 20 -12 0 -7 7 -5 18 5 32 29 166 38 176 11z"/>
<path d="M2720 3918 c0 -25 3 -29 10 -18 13 20 13 50 0 50 -5 0 -10 -15 -10
-32z"/>
<path d="M2280 3908 c0 -16 5 -28 10 -28 13 0 13 20 0 40 -8 12 -10 9 -10 -12z"/>
<path d="M2931 3882 c-6 -12 -11 -29 -10 -39 0 -11 6 -6 15 16 16 37 12 55 -5
23z"/>
<path d="M2060 3858 c0 -15 5 -30 10 -33 13 -8 13 25 0 45 -8 12 -10 9 -10
-12z"/>
<path d="M1840 3796 c0 -15 32 -76 40 -76 15 0 12 14 -7 49 -15 26 -33 41 -33
27z"/>
<path d="M2485 3508 c-4 -29 -24 -141 -45 -248 -21 -107 -40 -208 -42 -224 -3
-27 -14 -36 -100 -80 -137 -72 -190 -124 -243 -241 -15 -33 -31 -66 -34 -74
-8 -16 -57 -29 -226 -60 -204 -38 -318 -61 -322 -65 -6 -6 55 -24 102 -31 70
-10 157 -26 245 -45 47 -10 110 -23 140 -30 l55 -11 42 -87 c62 -127 113 -180
227 -236 51 -25 98 -52 103 -59 5 -6 18 -57 27 -112 10 -55 22 -118 26 -140 4
-22 17 -94 30 -160 12 -66 24 -122 26 -124 9 -10 16 12 35 125 12 65 25 137
30 159 4 22 17 88 28 147 22 118 25 128 47 128 23 0 113 49 172 93 61 46 117
124 151 209 l23 57 56 11 c32 6 111 22 177 36 66 14 162 33 213 42 50 9 92 19
92 23 0 9 -382 89 -429 89 -12 0 -40 6 -62 13 -39 11 -44 17 -80 96 -52 112
-134 194 -253 251 l-85 41 -10 52 c-6 29 -22 113 -36 187 -14 74 -30 155 -35
180 -5 25 -12 66 -15 93 -8 62 -21 60 -30 -5z m29 -175 c5 -18 35 -158 43
-203 22 -120 37 -172 52 -177 23 -7 92 -34 121 -47 48 -21 145 -129 173 -191
54 -119 50 -116 162 -134 135 -22 295 -60 295 -70 0 -3 -91 -24 -202 -46 -187
-37 -203 -42 -215 -65 -6 -14 -25 -55 -42 -91 -22 -48 -47 -82 -91 -123 -65
-60 -91 -76 -155 -96 -54 -17 -75 -37 -75 -73 0 -17 -4 -44 -10 -61 -5 -17
-21 -89 -35 -160 -14 -72 -28 -132 -30 -135 -11 -10 -17 12 -41 131 -52 265
-60 288 -93 288 -9 0 -43 13 -76 28 -74 36 -166 131 -202 211 -14 31 -31 67
-37 81 -13 28 -8 26 -223 65 -162 29 -206 42 -183 55 8 4 78 20 155 35 77 14
164 32 194 39 l55 13 22 63 c43 119 128 209 241 255 37 16 74 34 81 40 14 12
35 93 48 185 4 30 8 57 9 60 5 23 27 118 30 128 6 18 23 15 29 -5z"/>
<path d="M2435 2638 c-48 -27 -68 -58 -72 -111 -4 -46 -1 -57 27 -94 54 -73
138 -80 208 -16 35 33 37 37 37 99 0 63 -2 67 -37 100 -33 30 -44 34 -90 34
-29 0 -62 -6 -73 -12z m110 -88 c37 -41 -15 -111 -68 -91 -34 13 -46 64 -21
92 22 25 66 24 89 -1z"/>
<path d="M2601 3490 c-21 -12 -4 -29 37 -35 86 -15 232 -61 292 -93 260 -138
446 -383 500 -660 13 -65 35 -97 46 -69 16 44 -57 269 -123 376 -143 233 -338
382 -593 454 -113 32 -143 37 -159 27z"/>
<path d="M2305 3483 c-241 -55 -416 -165 -592 -373 -71 -84 -152 -256 -177
-380 -20 -94 -20 -120 -1 -120 8 0 17 10 20 23 9 38 36 150 44 183 13 49 99
214 142 269 92 120 250 247 369 295 30 12 64 26 75 30 34 14 87 29 153 41 40
8 62 17 62 25 0 14 -50 17 -95 7z"/>
<path d="M3639 3343 c-13 -15 -12 -15 9 -4 23 12 28 21 13 21 -5 0 -15 -7 -22
-17z"/>
<path d="M1200 3172 c0 -8 43 -32 55 -32 15 0 1 19 -20 28 -31 14 -35 15 -35
4z"/>
<path d="M3825 2943 c-19 -15 -19 -15 10 -8 37 8 57 25 30 25 -11 0 -29 -8
-40 -17z"/>
<path d="M1524 2406 c-13 -33 34 -213 79 -306 144 -298 387 -489 706 -555 46
-10 78 -12 84 -6 17 17 -2 28 -75 41 -269 47 -518 230 -655 480 -37 69 -78
185 -94 270 -14 72 -34 106 -45 76z"/>
<path d="M3453 2408 c-5 -7 -17 -49 -26 -94 -22 -101 -43 -161 -90 -250 -100
-187 -284 -355 -470 -428 -77 -31 -208 -66 -244 -66 -23 0 -32 -23 -14 -34 5
-4 42 1 83 9 341 71 620 311 737 633 35 97 58 219 44 233 -7 7 -13 6 -20 -3z"/>
<path d="M1098 2303 c-28 -4 -40 -23 -14 -23 32 0 75 13 70 21 -5 9 -8 9 -56
2z"/>
<path d="M3850 2290 c0 -5 19 -10 43 -10 31 0 38 3 27 10 -20 13 -70 13 -70 0z"/>
<path d="M1163 2087 c-38 -14 -52 -27 -30 -27 22 0 67 21 67 32 0 4 -1 8 -2 7
-2 0 -17 -6 -35 -12z"/>
<path d="M3800 2081 c0 -11 25 -21 51 -21 23 0 25 15 3 24 -23 9 -54 7 -54 -3z"/>
<path d="M1676 1375 c-3 -8 -1 -15 4 -15 6 0 10 7 10 15 0 8 -2 15 -4 15 -2 0
-6 -7 -10 -15z"/>
<path d="M3320 1385 c1 -17 29 -49 37 -41 4 3 -3 16 -15 29 -12 12 -22 17 -22
12z"/>
<path d="M3130 1277 c0 -8 6 -20 14 -26 12 -10 13 -8 9 9 -7 25 -23 37 -23 17z"/>
<path d="M2930 1193 c1 -18 22 -53 33 -53 3 0 0 16 -6 35 -11 37 -27 47 -27
18z"/>
<path d="M2060 1154 c0 -8 5 -12 10 -9 6 4 8 11 5 16 -9 14 -15 11 -15 -7z"/>
<path d="M2288 1154 c-5 -4 -8 -23 -8 -43 1 -30 2 -33 11 -18 11 19 8 73 -3
61z"/>
<path d="M2700 1152 c0 -5 7 -25 15 -43 l15 -34 -2 39 c-2 22 -9 41 -15 44 -7
2 -13 -1 -13 -6z"/>
</g>
</svg>
